<?xml version="1.0" standalone="no"?>
<!DOCTYPE svg PUBLIC "-//W3C//DTD SVG 1.1//EN" "http://www.w3.org/Graphics/SVG/1.1/DTD/svg11.dtd">
<!--Generator: Xara Designer (www.xara.com), SVG filter version: 6.0.0.4-->
<svg stroke-width="0.501" stroke-linejoin="bevel" fill-rule="evenodd" xmlns:xlink="http://www.w3.org/1999/xlink" xmlns="http://www.w3.org/2000/svg" version="1.1" overflow="visible" width="68.624pt" height="56.574pt" viewBox="0 0 68.624 56.574">
 <defs>
  <linearGradient id="LinearGradient" gradientUnits="userSpaceOnUse" x1="0" y1="0" x2="14.433" y2="0" gradientTransform="translate(40.318 33.641) rotate(180)">
   <stop offset="0" stop-color="#676767"/>
   <stop offset="1" stop-color="#c3c3c3"/>
  </linearGradient>
 </defs>
 <g id="Document" fill="none" stroke="black" font-family="Times New Roman" font-size="16" transform="scale(1 -1)">
  <g id="Spread" transform="translate(0 -56.574)">
   <g id="Layer 1">
    <g id="Group" stroke-linejoin="miter">
     <path d="M 60.273,27.915 C 59.418,28.17 58.565,28.426 57.711,28.683 C 57.282,28.81 56.854,28.938 56.425,29.067 C 56.371,29.082 56.318,29.1 56.265,29.115 C 56.237,29.124 56.21,29.132 56.185,29.14 C 56.159,29.147 56.091,29.113 56.107,29.165 C 56.141,29.272 56.172,29.378 56.204,29.484 C 56.263,29.696 56.318,29.913 56.364,30.131 C 56.555,31.015 56.632,31.887 56.594,32.79 C 56.576,33.239 56.529,33.682 56.454,34.125 C 56.417,34.344 56.373,34.562 56.322,34.777 C 56.287,34.932 56.22,34.951 56.411,35.001 C 56.517,35.032 56.626,35.061 56.734,35.089 C 60.179,36.012 63.628,36.936 67.074,37.858 C 67.074,35.331 67.074,32.802 67.074,30.275 C 67.074,30.118 67.074,29.958 67.074,29.801 C 67.074,29.675 66.75,29.65 66.683,29.63 C 66.378,29.549 66.071,29.466 65.766,29.385 C 65.156,29.222 64.545,29.059 63.935,28.895 C 62.714,28.568 61.493,28.241 60.273,27.915 Z" fill="#b46410" stroke="none" stroke-width="0" marker-start="none" marker-end="none" stroke-miterlimit="79.8403193612775"/>
     <path d="M 31.164,49.051 C 29.065,48.48 26.481,46.966 26.167,44.4 C 25.839,41.726 28.186,39.886 30.286,39.097 C 32.491,38.268 35.106,38.222 37.342,38.937 C 39.441,39.605 41.936,41.274 41.951,43.909 C 41.951,43.917 41.951,43.924 41.951,43.931 C 41.932,46.403 39.764,48.035 37.791,48.774 C 35.716,49.549 33.291,49.629 31.164,49.051 Z" stroke="none" stroke-width="0" fill="#d0d0d0" marker-start="none" marker-end="none" stroke-miterlimit="79.8403193612775"/>
     <path d="M 41.975,44.811 C 41.964,42.601 40.592,40.911 39.122,39.924 C 37.5,38.832 35.898,38.445 34.059,38.447 C 32.221,38.449 30.619,38.839 28.998,39.934 C 27.53,40.928 26.161,42.625 26.161,44.837 C 26.161,36.789 26.161,28.739 26.161,20.688 C 30.665,17.435 37.474,17.435 41.975,20.688 C 41.975,28.73 41.975,36.771 41.975,44.811 Z" stroke="none" stroke-width="0" marker-start="none" marker-end="none" stroke-miterlimit="79.8403193612775" fill="url(#LinearGradient)"/>
     <path d="M 25.396,39.189 C 21.456,36.776 19.336,32.438 22.325,28.302 C 23.18,29.448 24.167,30.336 25.396,31.065 C 25.396,33.773 25.396,36.481 25.396,39.189 Z" fill="#b46410" stroke="none" stroke-width="0" marker-start="none" marker-end="none" stroke-miterlimit="79.8403193612775"/>
     <path d="M 46.299,28.302 C 49.235,32.365 47.208,36.871 43.229,39.189 C 43.229,36.481 43.229,33.773 43.229,31.065 C 44.459,30.336 45.444,29.448 46.299,28.302 Z" fill="#fedd75" stroke="none" stroke-width="0" marker-start="none" marker-end="none" stroke-miterlimit="79.8403193612775"/>
     <path d="M 42.336,9.93 C 40.931,12.395 39.523,14.859 38.114,17.323 C 35.259,16.987 32.483,17.024 29.637,17.44 C 28.088,15.016 26.537,12.589 24.988,10.166 C 22.267,10.983 19.543,11.799 16.82,12.614 C 18.371,15.04 19.92,17.463 21.471,19.888 C 19.222,20.941 17.326,22.293 15.596,24.074 C 11.996,23.11 8.397,22.147 4.796,21.181 C 3.714,23.079 2.633,24.973 1.55,26.869 C 5.149,27.832 8.749,28.797 12.349,29.759 C 11.835,31.776 11.888,33.58 12.519,35.563 C 8.978,36.625 5.435,37.686 1.895,38.747 C 3.088,40.612 4.279,42.477 5.471,44.34 C 9.011,43.278 12.552,42.217 16.093,41.156 C 17.461,42.452 18.917,43.509 20.533,44.375 L 21.923,45.042 L 21.891,45.731 L 17.983,52.574 C 20.752,53.314 23.519,54.056 26.288,54.796 L 26.561,54.317 L 31.064,47.536 L 27.5,44.954 L 25.396,43.522 L 25.396,39.189 C 21.321,36.694 19.285,32.206 22.507,28.06 C 25.216,24.573 30.253,23.206 34.308,23.206 C 38.365,23.204 43.404,24.571 46.115,28.056 C 49.284,32.131 47.348,36.79 43.229,39.189 C 43.229,40.17 43.182,41.678 43.092,43.318 L 43.042,44.164 L 42.717,43.902 L 39.2,47.654 L 42.138,51.315 L 42.122,51.368 C 42.048,51.58 41.97,51.737 41.889,51.827 C 42.47,52.737 43.053,53.649 43.636,54.56 C 46.36,53.743 49.081,52.928 51.804,52.112 C 50.255,49.686 48.705,47.262 47.153,44.838 C 49.402,43.787 51.3,42.433 53.029,40.652 C 56.628,41.616 60.227,42.579 63.827,43.545 C 64.91,41.648 65.993,39.754 67.074,37.858 C 63.475,36.894 59.876,35.931 56.277,34.966 C 56.496,34.106 56.602,33.251 56.602,32.363 C 56.602,32.351 56.602,32.342 56.602,32.33 C 56.6,31.237 56.438,30.204 56.107,29.163 C 59.648,28.102 63.189,27.04 66.729,25.978 C 65.538,24.114 64.345,22.251 63.153,20.387 C 59.613,21.447 56.072,22.509 52.531,23.57 C 50.706,21.842 48.729,20.54 46.418,19.547 C 47.825,17.082 49.233,14.618 50.641,12.152 C 47.874,11.412 45.105,10.67 42.336,9.93 Z" stroke-width="0" fill="#fedd75" stroke="none" marker-start="none" marker-end="none" stroke-miterlimit="79.8403193612775"/>
     <path d="M 8.353,28.691 C 9.685,29.047 11.016,29.403 12.349,29.759 C 11.835,31.776 11.888,33.58 12.519,35.563 C 8.978,36.625 5.435,37.686 1.895,38.747 C 1.895,36.04 1.895,33.333 1.895,30.626 C 4.048,29.98 6.201,29.334 8.353,28.691 Z" fill="#fedd75" stroke="none" stroke-width="0" marker-start="none" marker-end="none" stroke-miterlimit="79.8403193612775"/>
     <path d="M 4.796,21.181 L 1.55,26.869 L 1.55,18.746 L 4.796,13.061 L 4.796,21.181 Z" fill="#fedd75" stroke="none" stroke-width="0" marker-start="none" marker-end="none" stroke-miterlimit="79.8403193612775"/>
     <path d="M 4.796,21.181 L 4.796,13.061 L 15.596,15.952 L 15.596,24.074 L 4.796,21.181 Z" fill="#b46410" stroke="none" stroke-width="0" marker-start="none" marker-end="none" stroke-miterlimit="79.8403193612775"/>
     <path d="M 15.596,15.952 C 16.258,15.254 16.965,14.62 17.731,14.039 C 18.977,15.989 20.224,17.938 21.471,19.888 C 19.222,20.941 17.326,22.293 15.596,24.074 C 15.596,21.367 15.596,18.659 15.596,15.952 Z" fill="#fedd75" stroke="none" stroke-width="0" marker-start="none" marker-end="none" stroke-miterlimit="79.8403193612775"/>
     <path d="M 24.988,10.166 L 16.82,12.614 L 16.82,4.492 L 24.988,2.042 L 24.988,10.166 Z" fill="#fedd75" stroke="none" stroke-width="0" marker-start="none" marker-end="none" stroke-miterlimit="79.8403193612775"/>
     <path d="M 24.988,10.166 L 24.988,2.042 L 29.637,9.317 L 29.637,17.44 L 24.988,10.166 Z" fill="#b46410" stroke="none" stroke-width="0" marker-start="none" marker-end="none" stroke-miterlimit="79.8403193612775"/>
     <path d="M 38.114,17.323 C 35.259,16.987 32.483,17.024 29.637,17.44 C 29.637,14.733 29.637,12.025 29.637,9.317 C 32.483,8.902 35.259,8.864 38.114,9.201 C 38.114,11.908 38.114,14.616 38.114,17.323 Z" fill="#b46410" stroke="none" stroke-width="0" marker-start="none" marker-end="none" stroke-miterlimit="79.8403193612775"/>
     <path d="M 42.336,9.93 L 38.114,17.323 L 38.114,9.201 L 42.336,1.806 L 42.336,9.93 Z" fill="#ffdf93" stroke="none" stroke-width="0" marker-start="none" marker-end="none" stroke-miterlimit="79.8403193612775"/>
     <path d="M 42.336,9.93 L 42.336,1.806 L 50.641,4.03 L 50.641,12.152 L 42.336,9.93 Z" fill="#b46410" stroke="none" stroke-width="0" marker-start="none" marker-end="none" stroke-miterlimit="79.8403193612775"/>
     <path d="M 52.531,23.57 C 50.706,21.842 48.729,20.54 46.418,19.547 C 47.595,17.486 48.772,15.425 49.95,13.364 C 50.876,13.984 51.73,14.673 52.531,15.448 C 52.531,18.155 52.531,20.863 52.531,23.57 Z" fill="#b46410" stroke="none" stroke-width="0" marker-start="none" marker-end="none" stroke-miterlimit="79.8403193612775"/>
     <path d="M 52.531,15.448 L 63.153,12.263 L 63.153,20.387 L 52.531,23.57 L 52.531,15.448 Z" fill="#fedd75" stroke="none" stroke-width="0" marker-start="none" marker-end="none" stroke-miterlimit="79.8403193612775"/>
     <path d="M 63.153,20.387 L 63.153,12.263 L 66.729,17.856 L 66.729,25.978 L 63.153,20.387 Z" fill="#b46410" stroke="none" stroke-width="0" marker-start="none" marker-end="none" stroke-miterlimit="79.8403193612775"/>
     <path d="M 47.153,44.838 C 48.491,44.212 49.722,43.462 50.891,42.56 C 51.196,43.037 51.499,43.513 51.804,43.99 C 51.804,46.697 51.804,49.405 51.804,52.112 C 50.255,49.686 48.705,47.262 47.153,44.838 Z" fill="#b46410" stroke="none" stroke-width="0" marker-start="none" marker-end="none" stroke-miterlimit="79.8403193612775"/>
     <path d="M 18.676,43.24 C 19.795,44.003 20.961,44.643 22.207,45.179 C 20.799,47.644 19.391,50.108 17.983,52.574 C 17.983,49.866 17.983,47.158 17.983,44.45 C 18.214,44.047 18.444,43.643 18.676,43.24 Z" fill="#ffdf93" stroke="none" stroke-width="0" marker-start="none" marker-end="none" stroke-miterlimit="79.8403193612775"/>
     <path d="M 30.875,48.254 L 26.288,54.796 L 17.983,52.574 L 17.983,44.45 L 18.676,43.24" fill="none" stroke="#000000" stroke-width="3.1" stroke-miterlimit="79.8403193612775"/>
     <path d="M 22.207,45.179 C 19.864,44.218 17.862,42.83 16.093,41.156 L 5.471,44.34 L 1.895,38.747 L 1.895,30.626 L 8.388,28.7" fill="none" stroke="#000000" stroke-width="3.1" stroke-miterlimit="79.8403193612775"/>
     <path d="M 12.519,35.563 C 11.833,33.629 11.888,31.695 12.349,29.759 L 1.55,26.869 L 1.55,18.746 L 4.796,13.061 L 15.596,15.952 L 17.731,14.039" fill="none" stroke="#000000" stroke-width="3.1" stroke-miterlimit="79.8403193612775"/>
     <path d="M 21.471,19.888 L 16.82,12.614 L 16.82,4.492 L 24.988,2.042 L 29.637,9.317 C 32.463,8.924 35.288,8.851 38.114,9.201 L 42.336,1.806 L 50.641,4.03 L 50.641,12.152 L 46.418,19.547" fill="none" stroke="#000000" stroke-width="3.1" stroke-miterlimit="79.8403193612775"/>
     <path d="M 56.277,34.966 C 56.713,33.18 56.793,31.275 56.185,29.14 L 66.729,25.978 L 66.729,17.856 L 63.153,12.263 L 52.531,15.448 C 51.756,14.679 50.885,13.993 49.95,13.364" fill="none" stroke="#000000" stroke-width="3.1" stroke-miterlimit="79.8403193612775"/>
     <path d="M 38.45,47.879 L 43.636,54.56 L 51.804,52.112 L 51.804,43.99 L 50.83,42.618" fill="none" stroke="#000000" stroke-width="3.1" stroke-miterlimit="79.8403193612775"/>
     <path d="M 47.153,44.838 C 49.312,43.852 51.285,42.483 53.029,40.652 L 63.827,43.545 L 67.074,37.858 L 67.074,29.801 L 60.194,27.938" fill="none" stroke="#000000" stroke-width="3.1" stroke-miterlimit="79.8403193612775"/>
     <path d="M 20.92,32.193 C 21.711,26.728 27.556,23.048 34.573,23.209 C 41.237,23.362 47.068,26.175 47.692,32.382" fill="none" stroke="#000000" stroke-width="3.1" stroke-miterlimit="79.8403193612775"/>
     <path d="M 41.984,24.759 L 42.103,43.152 C 42.124,46.487 38.978,49.402 34.29,49.402 C 29.603,49.402 26.478,46.486 26.478,43.152 L 26.478,24.402" fill="none" stroke-width="3.1" stroke="#000000" stroke-miterlimit="79.8403193612775"/>
    </g>
   </g>
  </g>
 </g>
</svg>
