<?xml version="1.0" standalone="no"?>
<!DOCTYPE svg PUBLIC "-//W3C//DTD SVG 1.1//EN" "http://www.w3.org/Graphics/SVG/1.1/DTD/svg11.dtd">
<!--Generator: Xara Designer (www.xara.com), SVG filter version: 6.0.0.4-->
<svg stroke-width="0.501" stroke-linejoin="bevel" fill-rule="evenodd" xmlns:xlink="http://www.w3.org/1999/xlink" xmlns="http://www.w3.org/2000/svg" version="1.1" overflow="visible" width="21.407pt" height="22.511pt" viewBox="0 0 21.407 22.511">
 <defs>
  <radialGradient id="RadialGradient" gradientUnits="userSpaceOnUse" cx="6.592" cy="16.293" r="17.744">
   <stop offset="0" stop-color="#ffdf47"/>
   <stop offset="1" stop-color="#ff0000"/>
  </radialGradient>
 </defs>
 <g id="Document" fill="none" stroke="black" font-family="Times New Roman" font-size="16" transform="scale(1 -1)">
  <g id="Spread" transform="translate(0 -22.511)">
   <g id="Layer 1">
    <path d="M 9.847,0.447 C 9.215,1.837 8.582,3.226 7.95,4.616 L 6.974,5.164 C 5.743,4.927 4.514,4.69 3.286,4.453 C 3.644,5.704 4.004,6.954 4.363,8.203 L 3.913,9.388 C 2.757,10.16 1.603,10.932 0.447,11.705 L 3.91,13.367 L 4.247,14.256 C 3.758,15.806 3.268,17.357 2.779,18.906 C 4.194,18.3 5.61,17.693 7.024,17.087 L 7.711,17.363 C 8.415,18.929 9.118,20.497 9.821,22.063 C 10.546,20.433 11.271,18.803 11.998,17.173 L 12.826,16.769 C 14.486,17.26 16.146,17.75 17.806,18.24 C 17.196,16.573 16.585,14.906 15.975,13.238 L 16.326,12.262 C 17.87,11.323 19.415,10.385 20.959,9.448 C 19.345,8.863 17.73,8.28 16.116,7.695 L 15.762,6.97 C 16.243,5.337 16.723,3.704 17.204,2.072 C 15.679,2.828 14.155,3.582 12.631,4.335 L 11.871,4.127 C 11.198,2.9 10.522,1.674 9.847,0.447 Z" stroke-linejoin="round" stroke-width="0.895" marker-start="none" marker-end="none" stroke-miterlimit="79.8403193612775" fill="url(#RadialGradient)"/>
    <g id="Group" stroke-linejoin="miter">
     <path d="M 7.966,12.595 L 9.08,12.514" fill="none" stroke-linecap="round" stroke-width="1.028" stroke-miterlimit="79.8403193612775"/>
     <path d="M 3.241,13.097 C 3.275,11.969 3.981,10.842 5.063,10.428 C 6.23,9.982 7.409,10.538 7.819,11.713 C 8.318,13.13 7.394,13.783 6.134,14.077 C 5.561,14.211 5.02,14.241 4.438,14.121 C 3.958,14.023 3.222,13.735 3.241,13.097 Z" stroke-width="0.342" fill="#ffbf00" marker-start="none" marker-end="none" stroke-miterlimit="79.8403193612775"/>
     <path d="M 14.244,11.994 C 14.255,12.64 13.524,13.062 13.061,13.264 C 12.481,13.517 11.908,13.629 11.279,13.641 C 9.806,13.671 8.682,13.23 9.236,11.581 C 10.196,8.727 14.191,8.911 14.244,11.994 Z" stroke-width="0.342" fill="#ffbf00" marker-start="none" marker-end="none" stroke-miterlimit="79.8403193612775"/>
     <path d="M 14.244,11.994 C 14.191,8.911 10.196,8.727 9.236,11.579 C 8.682,13.228 9.803,13.671 11.278,13.641 C 11.905,13.63 12.48,13.519 13.059,13.265 C 13.521,13.063 14.255,12.64 14.244,11.994 Z" fill="#000000" stroke-width="0.342" marker-start="none" marker-end="none" stroke-miterlimit="79.8403193612775"/>
     <path d="M 3.241,13.097 C 3.222,13.735 3.958,14.023 4.436,14.121 C 5.02,14.241 5.559,14.211 6.133,14.077 C 7.391,13.784 8.316,13.132 7.82,11.714 C 7.41,10.539 6.23,9.981 5.063,10.428 C 3.981,10.842 3.275,11.969 3.241,13.097 Z" fill="#000000" stroke-width="0.342" marker-start="none" marker-end="none" stroke-miterlimit="79.8403193612775"/>
    </g>
   </g>
  </g>
 </g>
</svg>
