<?xml version="1.0" standalone="no"?>
<!DOCTYPE svg PUBLIC "-//W3C//DTD SVG 1.1//EN" "http://www.w3.org/Graphics/SVG/1.1/DTD/svg11.dtd">
<!--Generator: Xara Designer (www.xara.com), SVG filter version: 6.0.0.4-->
<svg stroke-width="0.501" stroke-linejoin="bevel" fill-rule="evenodd" xmlns:xlink="http://www.w3.org/1999/xlink" xmlns="http://www.w3.org/2000/svg" version="1.1" overflow="visible" width="23.526pt" height="28.502pt" viewBox="0 0 23.526 28.502">
 <defs>
	</defs>
 <g id="Document" fill="none" stroke="black" font-family="Times New Roman" font-size="16" transform="scale(1 -1)">
  <g id="Spread" transform="translate(0 -28.502)">
   <g id="Layer 1">
    <path d="M 0,28.502 L 0,0 L 23.526,0 L 23.526,28.502 L 0,28.502 Z" fill="#ffffff" stroke-width="0.226" stroke-linecap="round" stroke="none" stroke-linejoin="miter" marker-start="none" marker-end="none" stroke-miterlimit="79.8403193612775"/>
    <g id="Group" stroke-linejoin="miter" stroke-miterlimit="79.8403193612775">
     <path d="M 20.769,14.16 L 2.175,14.16 L 2.175,19.193 L 20.769,19.193 L 20.769,14.16 Z" fill="#94a8f9" stroke="#000000" stroke-width="1.183" fill-rule="evenodd" stroke-linecap="round" marker-start="none" marker-end="none" stroke-miterlimit="5.98802395209581"/>
     <path d="M 15.485,2.401 L 2.176,2.401 L 2.176,14.103 L 15.485,14.103 L 15.485,2.401 Z" fill="#cccccc" stroke="#000000" stroke-width="1.183" fill-rule="evenodd" stroke-linecap="round" marker-start="none" marker-end="none" stroke-miterlimit="5.98802395209581"/>
     <path d="M 2.629,14.693 L 2.629,10.808 L 15.383,10.808 L 15.383,14.693 L 2.629,14.693 Z M 5.241,13.349 L 12.771,13.349 L 12.771,12.153 L 5.241,12.153 L 5.241,13.349 Z" fill="#0003ff" stroke="none" stroke-width="0.755" fill-rule="evenodd" stroke-linecap="round" marker-start="none" marker-end="none" stroke-miterlimit="5.98802395209581"/>
     <path d="M 5.169,4.963 L 12.493,4.963" fill="none" stroke="#000000" stroke-width="1.195" stroke-miterlimit="5.98802395209581" fill-opacity="0.752941"/>
     <path d="M 5.169,8.859 L 12.493,8.859" fill="none" stroke="#000000" stroke-width="1.195" stroke-miterlimit="5.98802395209581" fill-opacity="0.752941"/>
     <path d="M 5.169,16.65 L 12.493,16.65" fill="none" stroke="#000000" stroke-width="1.195" stroke-miterlimit="5.98802395209581" fill-opacity="0.752941"/>
     <path d="M 14.505,12.798 L 15.527,4.534 L 17.488,5.726 L 19.532,2.319 L 21.237,3.426 L 19.107,6.578 L 21.065,7.771 L 14.505,12.798 Z" stroke="#000000" fill="#ffffff" stroke-width="0.726" marker-start="none" marker-end="none" stroke-miterlimit="5.98802395209581"/>
     <path d="M 14.038,16.65 L 21.361,16.65" fill="none" stroke="#000000" stroke-width="1.195" stroke-miterlimit="5.98802395209581" fill-opacity="0.752941"/>
    </g>
   </g>
  </g>
 </g>
</svg>
