<?xml version="1.0" encoding="UTF-8" standalone="no"?>
<!--Generator: Xara Designer (www.xara.com), SVG filter version: 6.0.0.4-->

<svg
   xmlns:dc="http://purl.org/dc/elements/1.1/"
   xmlns:cc="http://creativecommons.org/ns#"
   xmlns:rdf="http://www.w3.org/1999/02/22-rdf-syntax-ns#"
   xmlns:svg="http://www.w3.org/2000/svg"
   xmlns="http://www.w3.org/2000/svg"
   xmlns:sodipodi="http://sodipodi.sourceforge.net/DTD/sodipodi-0.dtd"
   xmlns:inkscape="http://www.inkscape.org/namespaces/inkscape"
   version="1.1"
   overflow="visible"
   width="159.54311pt"
   height="180.47934pt"
   viewBox="0 0 159.54311 180.47934"
   id="svg4136"
   inkscape:version="0.91 r13725"
   sodipodi:docname="paint.svg"
   style="overflow:visible;fill-rule:evenodd;stroke-width:0.50099999;stroke-linejoin:bevel">
  <metadata
     id="metadata4267">
    <rdf:RDF>
      <cc:Work
         rdf:about="">
        <dc:format>image/svg+xml</dc:format>
        <dc:type
           rdf:resource="http://purl.org/dc/dcmitype/StillImage" />
        <dc:title></dc:title>
      </cc:Work>
    </rdf:RDF>
  </metadata>
  <sodipodi:namedview
     pagecolor="#ffffff"
     bordercolor="#666666"
     borderopacity="1"
     objecttolerance="10"
     gridtolerance="10"
     guidetolerance="10"
     inkscape:pageopacity="0"
     inkscape:pageshadow="2"
     inkscape:window-width="1920"
     inkscape:window-height="1137"
     id="namedview4265"
     showgrid="false"
     fit-margin-top="0"
     fit-margin-left="0"
     fit-margin-right="0"
     fit-margin-bottom="0"
     inkscape:zoom="0.97777778"
     inkscape:cx="372.39519"
     inkscape:cy="-254.57198"
     inkscape:window-x="1912"
     inkscape:window-y="-8"
     inkscape:window-maximized="1"
     inkscape:current-layer="svg4136" />
  <defs
     id="defs4138">
    <linearGradient
       id="LinearGradient"
       gradientUnits="userSpaceOnUse"
       x1="0"
       y1="0"
       x2="98.208"
       y2="0"
       gradientTransform="matrix(-0.59501919,-0.80371149,0.8142852,-0.58073694,138.942,737.321)">
      <stop
         offset="0"
         stop-color="#ffffff"
         id="stop4141" />
      <stop
         offset="1"
         stop-color="#3a3a3a"
         id="stop4143" />
    </linearGradient>
    <linearGradient
       id="LinearGradient_1"
       gradientUnits="userSpaceOnUse"
       x1="0"
       y1="0"
       x2="92.998001"
       y2="0"
       gradientTransform="matrix(-0.59004216,-0.80737244,0.81790025,-0.57563664,118.804,756.467)">
      <stop
         offset="0"
         stop-color="#ffffff"
         id="stop4146" />
      <stop
         offset="1"
         stop-color="#515151"
         id="stop4148" />
    </linearGradient>
    <linearGradient
       id="LinearGradient_2"
       gradientUnits="userSpaceOnUse"
       x1="0"
       y1="0"
       x2="36.313"
       y2="0"
       gradientTransform="matrix(-0.63559327,-0.77202409,0.7836535,-0.6214676,53.252,664.458)">
      <stop
         offset="0"
         stop-color="#ffffff"
         id="stop4151" />
      <stop
         offset="1"
         stop-color="#333333"
         id="stop4153" />
    </linearGradient>
    <linearGradient
       id="LinearGradient_3"
       gradientUnits="userSpaceOnUse"
       x1="0"
       y1="0"
       x2="35.506001"
       y2="0"
       gradientTransform="matrix(0.6065325,0.7950587,-0.80582874,0.59241484,21.582,651.111)">
      <stop
         offset="0"
         stop-color="#ffffff"
         id="stop4156" />
      <stop
         offset="1"
         stop-color="#484848"
         id="stop4158" />
    </linearGradient>
    <linearGradient
       id="LinearGradient_4"
       gradientUnits="userSpaceOnUse"
       x1="0"
       y1="0"
       x2="79.870003"
       y2="0"
       gradientTransform="matrix(-0.5858067,-0.81045081,0.82075414,-0.57155227,108.036,760.159)">
      <stop
         offset="0"
         stop-color="#ffffff"
         id="stop4161" />
      <stop
         offset="1"
         stop-color="#727272"
         id="stop4163" />
    </linearGradient>
    <linearGradient
       id="LinearGradient_5"
       gradientUnits="userSpaceOnUse"
       x1="0"
       y1="0"
       x2="78.245003"
       y2="0"
       gradientTransform="matrix(-0.42496934,0.26344081,-0.27054443,-0.42056577,135.046,705.05)"
       spreadMethod="reflect">
      <stop
         offset="0"
         stop-color="#980000"
         id="stop4166" />
      <stop
         offset="0.1"
         stop-color="#aa1404"
         id="stop4168" />
      <stop
         offset="0.2"
         stop-color="#ba2508"
         id="stop4170" />
      <stop
         offset="0.3"
         stop-color="#c7330a"
         id="stop4172" />
      <stop
         offset="0.4"
         stop-color="#d2400d"
         id="stop4174" />
      <stop
         offset="0.5"
         stop-color="#dc4b0f"
         id="stop4176" />
      <stop
         offset="0.6"
         stop-color="#e55411"
         id="stop4178" />
      <stop
         offset="0.7"
         stop-color="#ec5d13"
         id="stop4180" />
      <stop
         offset="0.8"
         stop-color="#f36414"
         id="stop4182" />
      <stop
         offset="0.9"
         stop-color="#f96b16"
         id="stop4184" />
      <stop
         offset="1"
         stop-color="#ff7117"
         id="stop4186" />
    </linearGradient>
  </defs>
  <g
     id="Document"
     font-size="16"
     transform="matrix(1,0,0,-1,-8.0838478,-5.0590722)"
     style="font-size:16px;font-family:'Times New Roman';fill:none;stroke:#000000">
    <g
       id="Spread"
       transform="translate(0,-792)">
      <g
         id="Layer 1">
        <g
           id="Group">
          <path
             d="m 46.12,608.998 c -0.147,-0.04 -0.334,-0.04 -0.48,0.025 l -0.13,0.057 -0.497,-0.098 c -1.594,-0.333 -3.041,-0.089 -3.952,1.179 -5.14,7.206 -8.694,14.355 -13.713,21.244 -4.505,6.157 -9.393,11.98 -12.28,19.926 -1.936,5.351 -7.117,9.678 -3.701,15.713 2.603,4.562 6.425,9.564 10.532,13.598 l 4.156,3.644 5.092,4.644 c 2.773,2.521 8.621,3.05 11.402,0.374 l 5.213,-5.018 9.744,8.962 c 22.911,22.212 40.535,47.318 50.213,76.719 l 0.065,0.057 13.932,-6.498 c 10.557,-5.213 20.764,-10.939 30.475,-17.388 l 12.646,-9.207 -0.016,-0.016 c -7.417,-9.776 -13.704,-21.024 -19.885,-32.427 -9.321,-17.844 -21.187,-34.02 -37.355,-47.326 -12.257,-9.914 -23.041,-19.495 -31.036,-28.498 -6.327,-7.702 -14.192,-10.581 -23.277,-15.567 -0.902,-0.479 -3.643,-2.488 -6.376,-3.57 l -0.415,-0.122 -0.016,-0.098 c -0.065,-0.154 -0.211,-0.26 -0.341,-0.309 z"
             stroke-miterlimit="79.8403193612775"
             id="path4192"
             inkscape:connector-curvature="0"
             style="fill:#e5e5e5;fill-rule:evenodd;stroke:none;stroke-width:0.301;stroke-miterlimit:79.84031677;marker-start:none;marker-end:none" />
          <path
             d="m 164.837,736.931 -12.646,9.207 c -9.711,6.449 -19.918,12.175 -30.475,17.388 l -13.932,6.498 0.431,0.35 26.782,3.692 4.173,-2.309 c 4.017,-2.294 7.824,-4.644 11.418,-7.092 l 3.123,-2.269 11.2,-24.896 -0.074,-0.569 z"
             stroke-miterlimit="79.8403193612775"
             id="path4194"
             inkscape:connector-curvature="0"
             style="fill:#e4e4e4;fill-rule:evenodd;stroke:none;stroke-width:0.301;stroke-miterlimit:79.84031677;marker-start:none;marker-end:none" />
          <path
             d="m 154.809,744.234 -2.618,1.904 c -1.229,0.788 -2.44,1.61 -3.677,2.383 l -2.529,1.586 1.009,16.908 0.853,-0.537 2.026,-1.334 4.936,-20.91 z"
             stroke-miterlimit="79.8403193612775"
             id="path4196"
             inkscape:connector-curvature="0"
             style="fill:#959595;stroke:none;stroke-width:0.301;stroke-miterlimit:79.84031677;marker-start:none;marker-end:none" />
          <path
             d="m 122.106,763.323 -0.39,0.203 -2.838,1.326 21.097,6.433 0.699,-0.415 1.033,-0.594 -19.601,-6.953 z"
             stroke-miterlimit="79.8403193612775"
             id="path4198"
             inkscape:connector-curvature="0"
             style="fill:#a5a5a5;stroke:none;stroke-width:0.301;stroke-miterlimit:79.84031677;marker-start:none;marker-end:none" />
          <path
             d="m 143.041,751.92 -1.96,1.179 -3.408,1.977 5.669,14.2 1.691,-1 0.675,-0.431 -2.667,-15.925 z"
             stroke-miterlimit="79.8403193612775"
             id="path4200"
             inkscape:connector-curvature="0"
             style="fill:#ffffff;stroke:none;stroke-width:0.301;stroke-miterlimit:79.84031677;marker-start:none;marker-end:none" />
          <path
             d="m 139.031,771.822 -22.398,-5.937 -8.532,3.977 25.131,3.969 1.765,0.235 4.034,-2.244 z"
             stroke-miterlimit="79.8403193612775"
             id="path4202"
             inkscape:connector-curvature="0"
             style="fill:#bfbfbf;stroke:none;stroke-width:0.301;stroke-miterlimit:79.84031677;marker-start:none;marker-end:none" />
          <path
             d="m 145.741,768.007 -2.659,-16.136"
             stroke-miterlimit="79.8403193612775"
             id="path4204"
             inkscape:connector-curvature="0"
             style="fill:none;stroke:#000000;stroke-width:1.23599994;stroke-miterlimit:79.84031677" />
          <path
             d="m 139.064,771.944 -22.309,-5.946"
             stroke-miterlimit="79.8403193612775"
             id="path4206"
             inkscape:connector-curvature="0"
             style="fill:none;stroke:#000000;stroke-width:1.23599994;stroke-miterlimit:79.84031677" />
          <path
             d="m 138.055,772.602 c 4.644,-2.545 8.939,-5.27 12.72,-8.36"
             stroke-miterlimit="79.8403193612775"
             id="path4208"
             inkscape:connector-curvature="0"
             style="fill:none;stroke:#000000;stroke-width:2.47199988;stroke-linecap:round;stroke-linejoin:round;stroke-miterlimit:79.84031677" />
          <mask
             id="TranspMask">
            <rect
               x="-61.200001"
               y="-79.200005"
               width="734.40002"
               height="950.40002"
               id="rect4211"
               style="fill:url(#LinearGradient);stroke:none" />
          </mask>
          <path
             d="m 75.96,648.191 c -0.562,-0.089 -0.261,0.497 -0.407,0.773 -0.049,0.114 -0.293,0.065 -0.39,0.187 -0.334,0.472 -0.838,1.188 -1.18,1.741 -0.341,0.593 -0.569,1.333 -0.951,1.943 -0.383,0.553 -1.424,1.066 -1.952,1.717 -0.309,0.398 -0.407,0.78 -0.789,1.171 -0.09,0.073 -0.578,0.374 -0.602,0.382 -0.138,0.22 0.106,0.732 0.016,0.968 -0.17,0.398 -0.423,0.911 -0.577,1.171 -0.992,1.464 -0.065,1.976 1.179,3.066 0.7,0.594 1.326,1.277 1.976,1.919 1.562,1.521 2.993,3.115 4.742,4.392 2.391,1.814 4.937,3.376 7.279,5.384 1.399,1.196 2.749,2.058 4.14,3.058 0.724,0.521 1.195,1.334 1.748,1.92 1.367,1.431 2.847,2.513 4.156,4.034 1.001,1.179 2.009,2.545 2.766,3.847 0.797,1.334 1.277,2.936 2.171,4.221 1.554,2.204 3.725,4.091 5.734,6.14 0.309,0.317 0.464,0.805 0.773,1.155 1.032,1.106 2.334,2.074 3.359,3.066 1,0.968 1.854,2.245 2.74,3.286 1.521,1.651 3.278,3.042 4.563,4.79 1.114,1.537 2.171,3.164 3.147,4.799 0.204,0.341 0.57,0.602 0.789,0.968 0.122,0.219 0.09,0.504 0.196,0.764 0.488,0.919 0.642,1.863 1.008,2.871 0.512,1.456 1.082,2.505 1.179,4.237 0.09,1.09 -0.097,2.213 0.025,3.27 0.162,1.383 0.512,2.944 0.813,4.441 0.407,2.147 1.423,3.407 2.546,5.18 0.821,1.277 1.521,2.489 2.586,3.668 1.448,1.578 2.57,2.814 3.749,4.392 1.586,2.18 1.887,5.165 3.164,7.507 0.586,1.065 0.838,2.188 1.399,3.269 l 0.74,1.082 11.321,-6.946 -0.171,-0.431 c -0.496,-1.073 -1.081,-2.106 -1.529,-3.18 -0.439,-1.049 -0.74,-2.049 -1.203,-3.09 -0.317,-0.724 -0.871,-1.391 -1.188,-2.107 -0.162,-0.423 -0.162,-0.951 -0.39,-1.35 -0.569,-1.016 -1.594,-1.984 -2.367,-2.879 -0.903,-1.016 -1.732,-2.204 -2.554,-3.269 -1.854,-2.4 -4.123,-4.465 -4.749,-7.491 -0.277,-1.301 -0.139,-2.806 -0.228,-4.253 -0.098,-2.115 -0.187,-5.027 -0.415,-7.109 -0.561,-5.058 -5.807,-8.637 -9.475,-11.703 -0.724,-0.602 -1.212,-1.155 -1.976,-1.741 -1.521,-1.146 -3.326,-1.992 -4.717,-3.44 -0.781,-0.821 -1.521,-1.675 -2.359,-2.489 -1.464,-1.447 -3.164,-2.708 -4.343,-4.424 -0.439,-0.634 -0.585,-1.553 -0.781,-2.31 -0.309,-1.033 -0.642,-2.098 -0.805,-3.277 -0.097,-0.602 -0.024,-1.131 -0.219,-1.716 -0.114,-0.366 -0.44,-0.627 -0.586,-0.96 -0.651,-1.667 -0.708,-3.823 -1.594,-5.376 -1.415,-2.537 -2.44,-4.937 -4.148,-7.328 -1.139,-1.594 -1.822,-3.408 -2.968,-4.994 -0.513,-0.715 -1.245,-1.423 -1.773,-2.114 -0.627,-0.805 -0.537,-0.854 -1.375,-1.334 -0.96,-0.545 -1.789,-1.228 -2.765,-1.732 -2.57,-1.334 -4.059,-1.212 -6.287,-3.245 -1.505,-1.35 -3.042,-2.432 -4.717,-3.432 -1.684,-1.017 -3.725,-1.505 -5.531,-2.31 -0.553,-0.236 -1.358,-0.667 -1.943,-0.749 z"
             stroke-miterlimit="79.8403193612775"
             mask="url(#TranspMask)"
             id="path4213"
             inkscape:connector-curvature="0"
             style="fill:#999999;stroke:none;stroke-width:5.32700014;stroke-miterlimit:79.84031677;marker-start:none;marker-end:none" />
          <path
             d="m 68.851,655.975 c -0.512,0.52 -0.187,1.09 -0.471,1.927 -0.472,1.424 -4.726,3.888 -3.416,5.791 0.398,0.569 1.634,0.634 2.456,1.44 4.595,4.456 13.143,7.449 17.226,13.411 2.651,3.839 4.806,8.003 7.913,11.533 2.277,2.61 5.238,4.448 7.881,6.709 4.343,3.693 8.32,8.629 11.825,12.468 2.725,2.985 5.246,5.848 5.921,10.085 0.399,2.359 -0.195,4.856 0.033,7.231 0.146,1.455 1.423,3.521 1.976,4.814 1.562,3.375 2.497,6.913 4.481,10.093 0.798,1.294 1.725,4.303 1.977,5.767 0.122,0.74 -0.244,1.708 0.008,2.423 0.561,1.635 1.326,3.123 2.253,4.53 l 3.042,3.912 5.31,-2.805 2.026,-1.261 -0.342,-1.554 c -0.561,-1.642 -1.204,-4.831 -2.001,-6.742 -1.504,-3.692 -4.823,-5.4 -6.905,-8.621 -2.928,-4.595 -4.44,-7.173 -4.473,-13.476 -0.024,-4.27 1.114,-11.126 -1.025,-14.445 -5.237,-8.141 -15.339,-12.24 -21.682,-19.657 -1.903,-2.204 -4.734,-4.579 -5.913,-7.173 -2.05,-4.465 -3.66,-8.312 -7.913,-11.061 -2.343,-1.529 -5.027,-3.172 -7.385,-4.807 -2.066,-1.407 -3.628,-4.083 -5.897,-5.742 -2.033,-1.472 -4.993,-2.928 -6.905,-4.79 z"
             stroke-miterlimit="79.8403193612775"
             id="path4215"
             inkscape:connector-curvature="0"
             style="fill:#ffffff;stroke:none;stroke-width:5.32700014;stroke-miterlimit:79.84031677;marker-start:none;marker-end:none" />
          <mask
             id="TranspMask_1">
            <rect
               x="-61.200001"
               y="-79.200005"
               width="734.40002"
               height="950.40002"
               id="rect4218"
               style="fill:url(#LinearGradient_1);stroke:none" />
          </mask>
          <path
             d="m 57.424,673.859 c -0.162,0.187 -0.219,0.545 -0.406,0.806 -0.09,0.146 -0.984,0.764 -1.171,0.975 -0.35,0.342 -0.594,0.358 -0.391,0.757 0.155,0.268 0.423,0.252 0.61,0.374 0.61,0.455 1.196,0.919 1.765,1.334 1.513,1.179 3.286,1.683 4.717,3.074 0.74,0.716 1.668,1.114 2.546,1.732 0.447,0.301 0.87,0.781 1.399,1.147 1.691,1.179 3.196,2.928 4.733,4.408 1.92,1.871 3.18,4.091 4.327,6.352 0.398,0.757 0.455,1.708 0.805,2.489 0.545,1.244 1.659,2.586 2.57,3.448 1.48,1.456 2.505,3.034 3.937,4.417 1.35,1.325 2.773,2.692 3.944,4.237 0.098,0.106 0.301,0.073 0.399,0.187 0.666,0.74 1.309,1.732 1.968,2.497 1.228,1.415 2.131,2.928 3.155,4.408 0.83,1.204 2.026,2.106 2.977,3.277 0.512,0.675 0.935,1.31 1.553,1.92 0.179,0.154 0.464,0.171 0.602,0.374 0.789,1.008 1.293,2.18 1.977,3.261 2.854,4.53 5.668,9.239 7.14,14.412 0.968,3.465 3.067,6.498 4.344,9.817 1.032,2.675 1.732,5.62 3.163,8.084 0.537,0.87 1.253,1.635 1.798,2.48 0.065,0.114 -0.057,0.285 0,0.399 0.252,0.415 0.837,0.805 1.163,1.155 1.163,1.114 1.488,1.447 2.773,2.489 l 0.163,0.17 1.732,-0.813 2.261,-1.196 -2.261,-4.318 c -1.326,-2.253 -2.603,-4.555 -3.123,-7.133 -0.244,-1.163 -0.228,-2.204 -0.602,-3.269 -0.48,-1.318 -1.293,-2.57 -2.188,-3.676 -1.96,-2.4 -4.204,-4.449 -5.717,-7.084 -1.22,-2.147 -3.27,-3.912 -3.953,-6.352 -0.992,-3.546 -2.123,-7.214 -3.587,-10.565 -1.032,-2.359 -2.643,-4.4 -3.749,-6.726 -0.968,-2.033 -1.74,-4.14 -2.765,-6.149 -0.472,-0.927 -0.708,-1.699 -1.407,-2.505 -1.553,-1.789 -3.758,-2.187 -5.693,-3.245 -0.594,-0.333 -1.041,-0.927 -1.57,-1.358 -2.375,-1.936 -4.587,-4.384 -7.1,-6.124 -1.448,-1.009 -2.757,-1.936 -3.92,-3.245 -2.261,-2.538 -4.547,-5.547 -7.117,-7.678 -0.691,-0.602 -1.26,-1.415 -1.976,-1.935 -0.171,-0.131 -0.415,-0.065 -0.577,-0.187 -1.464,-1.066 -3.27,-1.416 -4.726,-2.473 -1.667,-1.228 -3.041,-2.993 -4.522,-4.449 z"
             stroke-miterlimit="79.8403193612775"
             mask="url(#TranspMask_1)"
             id="path4220"
             inkscape:connector-curvature="0"
             style="fill:#000000;stroke:none;stroke-width:5.32700014;stroke-miterlimit:79.84031677;marker-start:none;marker-end:none" />
          <path
             d="m 55.302,676.137 c -0.895,0 -1.749,0.301 -2.546,1.098 2.066,-0.009 6.051,2.635 7.873,3.822 4.701,3.058 12.102,7.686 13.305,13.428 1.058,5.058 5.612,8.694 8.386,12.484 1.984,2.684 5.571,5.051 7.897,7.686 2.578,2.911 4.904,6.579 6.425,10.068 0.171,0.431 0.805,0.561 0.976,0.96 0.407,0.976 0.122,1.928 0.512,2.904 0.439,1.195 1.383,2.212 1.952,3.358 2.058,3.945 3.213,8.142 5.466,12.013 1.878,3.229 3.725,6.555 4.936,10.085 0.651,1.822 0.464,3.44 1.025,5.303 0.472,1.618 1.562,3.017 2.855,4.253 l 2.545,2.172 1.342,-0.627 -0.073,-0.439 c 0.008,-0.154 0.26,-0.146 1.188,-1.049 -2.107,-2.066 -4.913,-5.669 -5.433,-9.125 -0.301,-1.985 -0.155,-3.188 -1.001,-4.815 -3.708,-7.214 -8.084,-14.721 -10.418,-22.585 -4.058,-13.753 -19.828,-20.886 -26.14,-33.134 -1.203,-2.334 -4.066,-5.531 -5.912,-6.71 -2.578,-1.684 -3.514,-4.611 -6.425,-6.726 l -0.968,0 c -2.196,-1.619 -5.124,-4.441 -7.767,-4.424 z"
             stroke-miterlimit="79.8403193612775"
             id="path4222"
             inkscape:connector-curvature="0"
             style="fill:#ffffff;stroke:none;stroke-width:5.32700014;stroke-miterlimit:79.84031677;marker-start:none;marker-end:none" />
          <mask
             id="TranspMask_2">
            <rect
               x="-61.200001"
               y="-79.200005"
               width="734.40002"
               height="950.40002"
               id="rect4225"
               style="fill:url(#LinearGradient_2);stroke:none" />
          </mask>
          <path
             d="m 31.635,624.98 -0.741,1.212 c -1.13,1.756 -2.301,3.505 -3.546,5.213 l -1.96,2.619 0.106,0.138 c 0.773,1.366 1.521,3.123 2.074,4.18 0.724,1.383 1.065,2.733 1.497,4.327 0.65,2.513 5.522,4.969 6.888,7.661 0.87,1.684 2.969,4.335 2.977,6.263 0,1.147 -0.415,3.261 0.016,4.319 0.456,1.154 2.814,2.724 3.945,3.35 0.528,0.334 1.431,0.179 1.96,0.488 3.505,2.025 7.881,3.245 12.777,2.359 1.008,-0.203 1.927,-0.716 2.936,-0.992 0.903,-0.895 2.871,-1.204 2.423,-2.888 -0.341,-1.39 -1.821,-1.927 -3.432,-1.927 -3.18,0.016 -7.002,-0.39 -10.304,-0.895 -4.856,-0.797 -6.564,-5.262 -7.906,-9.117 -1.032,-3.099 -4.009,-5.587 -4.928,-8.653 -0.561,-1.92 -0.537,-4.042 -1.009,-5.799 -0.536,-2.05 0.252,-4.604 -0.04,-6.734 -0.082,-0.716 -2.156,-2.936 -3.229,-4.417 l -0.504,-0.707 z"
             stroke-miterlimit="79.8403193612775"
             mask="url(#TranspMask_2)"
             id="path4227"
             inkscape:connector-curvature="0"
             style="fill:#ffffff;stroke:none;stroke-width:5.32700014;stroke-miterlimit:79.84031677;marker-start:none;marker-end:none" />
          <mask
             id="TranspMask_3">
            <rect
               x="-61.200001"
               y="-79.200005"
               width="734.40002"
               height="950.40002"
               id="rect4230"
               style="fill:url(#LinearGradient_3);stroke:none" />
          </mask>
          <path
             d="m 20.004,641.693 -2.431,4.034 c -0.464,0.903 -0.903,1.798 -1.31,2.717 l -1.025,2.464 2.245,2.147 c 0.212,0.285 0.366,0.846 0.578,1.147 0.748,1.008 1.74,2.114 2.187,3.269 0.44,1.123 0.562,2.318 0.993,3.465 0.235,0.651 0.683,1.285 1,1.919 0.366,0.846 1.147,1.521 1.765,2.123 1.488,1.431 2.57,3.514 4.343,4.587 1.391,0.862 3.139,1.212 4.514,2.115 3.741,2.415 4.448,7.197 7.498,10.174 0.155,0.155 0.399,0.098 0.61,0.187 0.716,0.35 1.204,1.057 1.952,1.342 1.212,0.456 2.578,0.61 3.937,0.765 0.423,-0.358 0.756,-0.618 1.187,-0.976 0.675,-0.594 3.725,-2.709 2.139,-3.864 -1.415,-1.016 -2.489,-2.317 -3.961,-3.277 -1.155,-0.724 -2.244,-1.554 -3.147,-2.652 -0.781,-1.008 -1.114,-2.236 -1.79,-3.277 -1.236,-1.903 -3.358,-3.863 -4.912,-5.376 -0.407,-0.399 -1.082,-0.594 -1.578,-1.171 -0.935,-1.033 -1.643,-1.611 -2.968,-2.294 -1.822,-0.951 -4.181,-1.09 -5.88,-2.277 -0.814,-0.553 -1.294,-1.277 -1.773,-2.115 -1.196,-1.911 -1.326,-4.644 -1.798,-6.921 -0.423,-1.952 -1.325,-4.034 -1.797,-5.961 l -0.578,-2.294 z"
             stroke-miterlimit="79.8403193612775"
             mask="url(#TranspMask_3)"
             id="path4232"
             inkscape:connector-curvature="0"
             style="fill:#999999;stroke:none;stroke-width:5.32700014;stroke-miterlimit:79.84031677;marker-start:none;marker-end:none" />
          <path
             d="m 15.905,649.298 -0.837,2.033 -0.659,1.537 2.147,2.887 c 0.935,1.245 1.61,2.147 1.765,2.367 1.391,2.001 2.253,5.059 3.944,6.726 2.318,2.212 4.612,4.465 6.913,6.71 1.895,1.83 4.034,2.074 5.433,4.318 1.611,2.652 1.684,4.051 3.953,6.23 0.773,0.773 1.22,2.286 2.44,2.887 0.756,0.35 1.683,0.147 2.48,0.472 0.96,-0.577 1.472,-0.821 2.432,-1.464 1.236,-0.829 -3.676,-2.537 -4.937,-3.351 -1.895,-1.236 -1.992,-4.416 -2.456,-6.734 -0.26,-1.155 -2.854,-3.668 -3.936,-4.294 -2.172,-1.285 -4.856,-1.293 -6.905,-2.887 -4.953,-3.872 -5.669,-10.345 -9.386,-14.884 -0.065,-0.065 -0.723,-0.772 -1.659,-1.773 l -0.732,-0.78 z"
             stroke-miterlimit="79.8403193612775"
             id="path4234"
             inkscape:connector-curvature="0"
             style="fill:#ffffff;stroke:none;stroke-width:5.32700014;stroke-miterlimit:79.84031677;marker-start:none;marker-end:none" />
          <mask
             id="TranspMask_4">
            <rect
               x="-61.200001"
               y="-79.200005"
               width="734.40002"
               height="950.40002"
               id="rect4237"
               style="fill:url(#LinearGradient_4);stroke:none" />
          </mask>
          <path
             d="m 50.568,680.667 c -1.285,0.748 -2.277,2.212 -3.115,3.651 l -1.659,1.847 1.968,-1.879 9.744,8.962 c 22.911,22.212 40.535,47.318 50.213,76.719 l 0.065,0.057 4.571,-2.139 -1.163,-2.911 c -0.927,-1.969 -1.919,-3.953 -2.773,-5.946 -0.562,-1.301 -0.749,-2.805 -1.407,-4.05 -0.895,-1.773 -1.741,-3.578 -2.554,-5.4 -0.651,-1.391 -0.838,-2.952 -1.391,-4.408 -1.228,-3.18 -3.367,-6.303 -5.148,-9.231 -0.439,-0.708 -1.082,-1.253 -1.578,-1.92 -0.911,-1.236 -1.7,-2.594 -2.578,-3.847 -1.025,-1.431 -2.212,-2.822 -2.961,-4.424 -0.414,-0.878 -0.414,-1.968 -0.797,-2.887 -0.715,-1.676 -1.805,-3.123 -2.952,-4.595 -0.13,-0.171 -0.089,-0.415 -0.203,-0.586 -0.505,-0.634 -1.098,-1.008 -1.57,-1.529 -2.001,-2.18 -3.709,-4.497 -5.522,-6.702 -1.424,-1.732 -2.912,-3.407 -4.156,-5.197 -1.212,-1.781 -1.635,-3.968 -2.765,-5.766 -0.903,-1.423 -1.668,-2.952 -2.782,-4.237 -1.122,-1.285 -2.456,-2.147 -3.749,-3.058 -1.074,-0.797 -2.156,-1.855 -3.335,-2.497 -4.359,-2.342 -8.564,-4.717 -12.403,-8.027 z"
             stroke-miterlimit="79.8403193612775"
             mask="url(#TranspMask_4)"
             id="path4239"
             inkscape:connector-curvature="0"
             style="fill:#b2b2b2;stroke:none;stroke-width:5.32700014;stroke-miterlimit:79.84031677;marker-start:none;marker-end:none" />
          <path
             d="m 43.232,608.982 -0.545,0.602 c -0.878,2.05 -0.187,4.88 0.334,6.954 0.333,1.236 1.431,2.35 2.391,3.277 1.919,1.863 3.595,4.018 5.701,5.75 1.342,1.074 2.977,1.928 3.953,3.254 0.675,0.911 1.391,1.886 2.358,2.675 l 1.18,-0.008 c 1.041,-0.244 1.447,-0.74 1.179,-1.732 -0.244,-0.87 -1.407,-1.594 -2.172,-2.107 -1.642,-1.065 -4.912,-2.513 -4.936,-4.993 0,-1.098 0.154,-1.651 0.577,-2.302 0.187,-0.244 0.22,-0.585 0.594,-0.585 0.74,0 1.521,0.544 2.171,0.772 1.253,0.423 2.831,0.594 4.132,1.139 0.317,0.122 0.87,0.569 1.163,0.748 1.781,1.098 3.733,2.676 5.327,4.229 1.147,1.114 2.668,2.237 3.725,3.449 0.984,1.081 1.675,1.862 2.765,2.684 0.277,0.187 0.667,0.585 0.984,0.772 0.261,0.138 0.757,0 0.993,0.195 0.431,0.301 0.512,0.96 0.789,1.326 0.374,0.529 0.919,0.992 1.179,1.741 0.577,1.651 1.789,3.399 1.789,5.188 0.008,0.497 -0.423,1.05 -0.179,1.546 0.098,0.219 0.399,0.195 0.578,0.382 0.691,0.651 1.488,1.114 2.171,1.724 0.277,0.236 0.513,0.537 0.781,0.756 0.26,0.22 0.561,0.35 0.805,0.578 0.716,0.659 1.342,1.309 1.968,1.911 0.61,0.61 1.611,0.797 2.359,1.171 1.854,0.895 3.676,1.871 5.506,2.847 1.627,0.903 3.359,1.488 4.912,2.497 2.025,1.309 3.595,2.936 5.327,4.595 0.887,0.862 1.993,1.659 2.749,2.692 1.082,1.431 2.131,3.115 3.376,4.408 0.618,0.683 1.309,1.057 1.96,1.732 2.562,2.676 4.904,6.263 6.709,9.41 1.391,2.44 2.326,5.092 3.774,7.499 4.506,7.621 12.314,13.363 17.73,20.544 0.22,0.293 0.578,0.472 0.805,0.756 0.204,0.277 0.204,0.675 0.391,0.96 1.439,2.318 2.431,5.091 2.773,7.905 0.325,2.644 -0.057,5.124 0.626,7.491 0.586,1.984 1.855,3.904 3.375,5.4 0.122,0.13 0.399,0.049 0.578,0.179 0.529,0.407 1.008,1.049 1.586,1.545 1.342,1.212 2.554,2.115 4.131,2.863 0.562,0.277 0.448,0.521 0.797,0.968 0.033,0.081 0.456,0.203 0.57,0.366 0.333,0.431 0.61,0.789 0.992,1.155 l 4.197,4.4 4.627,-3.359 -0.016,-0.016 c -7.417,-9.776 -13.704,-21.024 -19.885,-32.427 -9.321,-17.844 -21.187,-34.02 -37.355,-47.326 -12.257,-9.914 -23.041,-19.495 -31.036,-28.498 -6.327,-7.702 -14.192,-10.581 -23.277,-15.567 -0.902,-0.479 -3.643,-2.488 -6.376,-3.57 l -0.415,-0.122 -0.016,-0.098 c -0.065,-0.154 -0.211,-0.26 -0.341,-0.309 -0.147,-0.04 -0.334,-0.04 -0.48,0.025 l -0.13,0.057 -0.497,-0.098 -1.781,0 z"
             stroke-miterlimit="79.8403193612775"
             id="path4241"
             inkscape:connector-curvature="0"
             style="fill:#cccccc;stroke:none;stroke-width:5.32700014;stroke-miterlimit:79.84031677;marker-start:none;marker-end:none" />
          <path
             d="m 153.069,762.875 11.508,-25.537 c -7.482,-9.793 -13.769,-21.097 -19.975,-32.516 -9.288,-17.779 -21.089,-33.891 -37.216,-47.139 -12.249,-9.89 -23.033,-19.511 -31.101,-28.572 -6.238,-7.58 -13.924,-10.369 -23.106,-15.412 -2.18,-1.195 -9.02,-6.425 -11.394,-3.098 -4.896,6.856 -8.882,14.566 -13.745,21.235 -4.538,6.197 -9.321,11.939 -12.183,19.788 -2.107,5.79 -6.962,9.499 -3.734,15.192 3.408,6.019 9.02,12.867 14.575,17.112 l 5.099,4.636 c 2.57,2.35 8.036,2.789 10.549,0.39 l 5.612,-5.441 c 27.928,24.562 49.44,52.597 60.55,86.349 l 26.839,3.692"
             stroke-miterlimit="79.8403193612775"
             id="path4243"
             inkscape:connector-curvature="0"
             style="fill:none;stroke:#000000;stroke-width:6.0999999;stroke-linecap:round;stroke-linejoin:round;stroke-miterlimit:79.84031677" />
          <path
             d="m 47.795,683.155 c 2.578,-3.814 6.002,-6.978 9.158,-10.215 4.001,-4.139 6.929,-10.353 10.174,-15.111 2.928,-4.327 8.101,-6.905 9.345,-12.85 0.374,-1.863 -0.333,-3.042 -1.114,-4.685 -0.195,-0.39 -1.18,-1.577 -0.992,-2.065 -1.212,-3.083 -2.294,-5.873 -4.775,-8.239 -1.366,-1.293 -2.96,-2.139 -4.123,-3.644 -1.407,-1.862 -3.017,-3.57 -5.628,-3.977 -3.196,-0.529 -5.482,-3.375 -8.686,-2.269 -1.155,0.374 -1.732,1.139 -2.733,1.594"
             stroke-miterlimit="79.8403193612775"
             id="path4245"
             inkscape:connector-curvature="0"
             style="fill:none;stroke:#000000;stroke-width:2.47199988;stroke-linecap:round;stroke-linejoin:round;stroke-miterlimit:79.84031677" />
          <path
             d="m 72.69,642.791 c -2.846,0.716 -5.766,-1.374 -7.303,-3.416 -2.692,-3.57 -6.58,-6.075 -10.004,-9.036 -4.481,-3.912 -7.84,-8.645 -11.297,-13.224 -2.155,-2.846 -1.098,-6.01 2.042,-7.466"
             stroke-miterlimit="79.8403193612775"
             id="path4247"
             inkscape:connector-curvature="0"
             style="fill:none;stroke:#000000;stroke-width:2.47199988;stroke-linecap:round;stroke-linejoin:round;stroke-miterlimit:79.84031677" />
          <path
             d="m 53.919,619.986 c -0.756,0.179 -0.976,0.236 -1.586,0.61 -0.472,0.301 -0.341,0.586 -0.252,0.944 0.285,1.163 1.122,2.139 1.936,2.976 1.862,1.936 3.96,3.571 6.01,5.352 0.862,0.756 -0.382,1.594 -0.919,2.244 -0.171,0.236 -0.374,0.676 -0.577,0.749"
             stroke-miterlimit="79.8403193612775"
             id="path4249"
             inkscape:connector-curvature="0"
             style="fill:none;stroke:#000000;stroke-width:2.47199988;stroke-linecap:round;stroke-linejoin:round;stroke-miterlimit:79.84031677" />
          <path
             d="m 108.833,769.61 c 19.943,-8.247 38.282,-19.382 55.59,-32.337"
             stroke-miterlimit="79.8403193612775"
             id="path4251"
             inkscape:connector-curvature="0"
             style="fill:none;stroke:#000000;stroke-width:2.47199988;stroke-linecap:round;stroke-linejoin:round;stroke-miterlimit:79.84031677" />
          <path
             d="m 102.644,754.002 c 12.468,-9.458 26.099,-16.908 40.934,-22.357 l 1.927,-8.613 c -11.898,-14.664 -11.768,-30.353 -29.189,-42.447 -11.744,12.574 -24.782,23.375 -39.071,32.524 9.1,11.858 17.722,25.066 25.399,40.893 z"
             stroke-miterlimit="79.8403193612775"
             id="path4253"
             inkscape:connector-curvature="0"
             style="fill:url(#LinearGradient_5);fill-opacity:0.99607801;stroke:#000000;stroke-width:2.47199988;stroke-miterlimit:79.84031677;stroke-opacity:0.99607801;marker-start:none;marker-end:none" />
          <path
             d="m 142.943,732.011 -3.895,-6.19 6.083,-3.66"
             stroke-miterlimit="79.8403193612775"
             id="path4255"
             inkscape:connector-curvature="0"
             style="fill:none;fill-opacity:0.99607801;stroke:#000000;stroke-width:1.23599994;stroke-linecap:round;stroke-linejoin:round;stroke-miterlimit:79.84031677;stroke-opacity:0.99607801" />
          <path
             d="m 153.711,762.396 -3.123,2.269 c -3.594,2.448 -7.401,4.798 -11.418,7.092 l -4.173,2.309 0.033,0 c 0.122,0.025 0.219,0 0.317,-0.032 l 2.456,-0.927 5.864,11.012 c 0.163,0.244 0.472,0.374 0.765,0.268 5.937,-2.171 10.564,-5.156 13.899,-8.954 0.163,-0.22 0.195,-0.504 0.041,-0.732 l -6.897,-10.207 1.724,-1.212 c 0.122,-0.081 0.179,-0.155 0.211,-0.252 l 0.301,-0.634 z"
             stroke-miterlimit="79.8403193612775"
             id="path4257"
             inkscape:connector-curvature="0"
             style="fill:#dbdff3;fill-rule:evenodd;stroke:none;stroke-width:0.301;stroke-miterlimit:79.84031677;marker-start:none;marker-end:none" />
          <path
             d="m 153.711,762.396 -3.123,2.269 c -0.927,0.618 -1.813,1.22 -2.741,1.813 l -0.024,0.008 7.564,11.793 0.203,-0.162 c 0.992,-0.838 1.903,-1.733 2.741,-2.684 0.163,-0.22 0.195,-0.504 0.041,-0.732 l -6.897,-10.207 1.724,-1.212 c 0.122,-0.081 0.179,-0.155 0.211,-0.252 l 0.301,-0.634 z"
             stroke-miterlimit="79.8403193612775"
             id="path4259"
             inkscape:connector-curvature="0"
             style="fill:#a2abc1;stroke:none;stroke-width:0.301;stroke-miterlimit:79.84031677;marker-start:none;marker-end:none" />
          <path
             d="m 140.837,770.748 -1.667,1.009 -4.173,2.309 0.033,0 c 0.122,0.025 0.219,0 0.317,-0.032 l 2.456,-0.927 5.864,11.012 c 0.163,0.244 0.472,0.374 0.765,0.268 0.748,-0.276 1.472,-0.545 2.155,-0.862 l 1.212,-0.553 -6.962,-12.224 z"
             stroke-miterlimit="79.8403193612775"
             id="path4261"
             inkscape:connector-curvature="0"
             style="fill:#bcbdd5;stroke:none;stroke-width:0.301;stroke-miterlimit:79.84031677;marker-start:none;marker-end:none" />
          <path
             d="m 135.347,773.554 2.969,-1.106 6.116,11.443 c 5.872,-2.139 10.426,-5.083 13.655,-8.784 l -7.222,-10.678 2.204,-1.554"
             stroke-miterlimit="79.8403193612775"
             id="path4263"
             inkscape:connector-curvature="0"
             style="fill:none;stroke:#000000;stroke-width:6.0999999;stroke-linecap:round;stroke-linejoin:round;stroke-miterlimit:79.84031677" />
        </g>
      </g>
    </g>
  </g>
</svg>
