<?xml version="1.0" standalone="no"?>
<!DOCTYPE svg PUBLIC "-//W3C//DTD SVG 1.1//EN" "http://www.w3.org/Graphics/SVG/1.1/DTD/svg11.dtd">
<!--Generator: Xara Designer (www.xara.com), SVG filter version: 6.0.0.4-->
<svg stroke-width="0.501" stroke-linejoin="bevel" fill-rule="evenodd" xmlns:xlink="http://www.w3.org/1999/xlink" xmlns="http://www.w3.org/2000/svg" version="1.1" overflow="visible" width="22.145pt" height="22.753pt" viewBox="0 0 22.145 22.753">
 <defs>
  <radialGradient id="RadialGradient" gradientUnits="userSpaceOnUse" cx="0" cy="0" r="12.631" gradientTransform="translate(11.596 13.335) rotate(42.3497) scale(1 0.252395)">
   <stop offset="0" stop-color="#ffffff"/>
   <stop offset="1" stop-color="#00ff03"/>
  </radialGradient>
 </defs>
 <g id="Document" fill="none" stroke="black" font-family="Times New Roman" font-size="16" transform="scale(1 -1)">
  <g id="Spread" transform="translate(0 -22.753)">
   <g id="Layer 1">
    <g id="Group">
     <path d="M 21.456,21.745 C 20.392,21.165 19.329,20.972 17.686,20.875 C 15.98,20.775 14.279,20.29 12.659,19.715 C 10.935,19.103 9.155,18.445 7.729,17.298 C 6.318,16.163 5.164,14.66 4.346,13.045 C 3.848,12.062 3.546,10.954 3.476,9.855 C 3.401,8.687 3.879,7.543 3.959,6.375 C 4.001,5.765 3.477,4.914 3.959,4.538 C 4.378,4.211 4.98,4.854 5.506,4.925 C 6.783,5.098 8.114,4.742 9.372,5.022 C 10.23,5.213 11.042,5.62 11.789,6.085 C 13.147,6.931 14.358,8.02 15.462,9.178 C 16.414,10.176 17.276,11.277 17.976,12.465 C 18.547,13.434 19.036,14.472 19.329,15.558 C 19.548,16.372 19.43,17.251 19.619,18.072 C 19.749,18.637 19.958,19.187 20.199,19.715 C 20.415,20.187 20.692,20.631 20.972,21.068 C 21.121,21.301 21.685,21.869 21.456,21.745 Z" stroke="#00ff03" stroke-width="0.188" marker-start="none" marker-end="none" stroke-miterlimit="79.8403193612775" fill="url(#RadialGradient)"/>
     <path d="M 0.441,0.652 C 0.295,0.799 -0.115,1.166 0.031,1.313 C 1.514,2.795 2.722,3.73 3.218,5.368 C 3.771,7.196 2.506,10.025 3.216,11.362 C 3.793,13.377 4.802,15.514 6.391,16.98 L 7.107,17.563 L 8.384,18.453 C 11.542,20.392 15.625,21.223 18.796,21.583 L 19.509,21.559 C 20.091,21.615 20.372,21.784 20.98,22.065 C 21.149,22.185 22.013,22.833 22.134,22.665 C 22.254,22.496 21.346,21.605 21.178,21.484 C 20.536,21.025 20.065,20.885 19.439,20.852 L 18.74,20.79 L 17.487,20.654 C 14.146,20.154 10.262,19.113 7.546,16.955 C 5.734,15.661 4.796,13.906 4.156,11.675 C 3.581,9.618 4.599,6.733 4.006,4.775 C 3.458,2.963 3.123,1.54 1.606,0.022 C 1.459,-0.124 0.588,0.506 0.441,0.652 Z" fill="#000000" stroke-width="0.5" stroke="none" fill-rule="evenodd" marker-start="none" marker-end="none" stroke-miterlimit="79.8403193612775"/>
     <path d="M 3.144,4.53 C 3.117,4.735 3.501,5.144 3.706,5.171 C 5.893,5.46 9.373,5.312 10.823,6.375 L 13.433,8.211 C 15.463,9.565 18.363,13.915 18.653,15.703 C 18.888,17.157 19.25,18.859 19.808,20.087 C 20.114,20.807 20.577,21.398 20.894,21.939 C 20.999,22.117 21.899,22.848 22.078,22.743 C 22.256,22.638 21.628,21.899 21.541,21.558 C 21.148,20.891 20.783,20.464 20.495,19.786 C 19.99,18.674 19.859,17.144 19.426,15.413 C 18.966,13.572 17.396,9.419 10.94,5.207 C 8.674,4.044 5.962,4.525 3.565,4.208 C 3.36,4.181 3.171,4.325 3.144,4.53 Z" fill="#000000" stroke-width="0.5" stroke="none" fill-rule="evenodd" marker-start="none" marker-end="none" stroke-miterlimit="79.8403193612775"/>
     <path d="M 3.434,4.481 C 3.255,4.585 3.194,4.815 3.299,4.993 C 4.264,6.648 5.114,8.543 6.308,10.146 C 7.657,11.959 9.196,13.675 10.956,15.118 C 12.594,16.463 14.716,17.325 16.434,18.39 C 16.61,18.499 17.583,18.967 17.692,18.791 C 17.801,18.615 16.831,18.126 16.655,18.017 C 14.819,16.878 13.025,15.846 11.431,14.539 C 9.731,13.144 8.232,11.476 6.909,9.699 C 5.745,8.134 5.631,6.832 4.606,5.075 C 4.502,4.896 3.612,4.376 3.434,4.481 Z" fill="#000000" stroke-width="0.5" stroke="none" fill-rule="evenodd" marker-start="none" marker-end="none" stroke-miterlimit="79.8403193612775"/>
    </g>
   </g>
  </g>
 </g>
</svg>
